<?xml version="1.0" encoding="utf-8" ?><svg xmlns="http://www.w3.org/2000/svg" xmlns:xlink="http://www.w3.org/1999/xlink" width="1024" height="1024" viewBox="0 0 1024 1024"><path fill="#1E1C1D" d="M317.064 150.23C368.902 149.536 422.028 150.131 473.983 150.122L520.539 150.116C528.793 150.115 542.489 149.753 550.371 151.006C561.869 152.759 572.647 157.696 581.484 165.257C593.985 175.792 601.796 190.857 603.201 207.144C605.788 237.693 587.357 252.088 567.761 271.432C552.33 286.496 537.001 301.665 521.775 316.936L341.11 496.667C323.966 513.934 306.688 531.067 289.276 548.064C281.895 555.364 271.204 564.604 264.838 572.354C278.679 572.748 294.089 572.408 308.094 572.436L398.02 572.534L678 572.531L777.301 572.592C792.45 572.607 812.612 571.23 827.051 573.466C863.836 579.163 889.466 612.887 889.729 648.53L889.803 694.311C889.821 704.697 890.158 717.668 889.125 727.822C885.16 764.891 868.803 799.537 842.7 826.153C811.61 858.008 769.017 876.023 724.505 876.144L440.936 876.297L362.768 876.321C341.346 876.326 313.466 877.246 293.014 872.883C260.967 866.228 231.516 850.482 208.183 827.529C154.766 774.503 158.761 725.267 158.535 656.62C161.763 659.983 165.74 664.377 169.238 667.287C189.181 683.878 212.529 693.15 238.028 697.18C244.274 698.167 250.672 698.484 256.947 699.165C257.345 708.475 257.199 712.957 259.364 722.025C263.283 735.989 268.198 745.647 278.623 755.983C289.095 766.537 302.626 773.522 317.295 775.945C327.477 777.657 350.392 777.033 361.672 777.028L438.486 776.991L714.83 777.059C737.649 777.009 754.603 772.395 771.21 755.558C796.299 730.12 793.05 704.558 792.969 672.012C781.444 670.977 758.348 671.666 746.028 671.671L655.735 671.701L370.26 671.667L291.171 671.687C276.541 671.684 252.94 672.344 239.241 669.983C220.34 666.576 202.81 657.824 188.728 644.764C170.764 628.019 160.169 604.837 159.264 580.295C157.641 536.794 180.718 517.579 208.583 489.999C224.924 473.549 241.395 457.23 257.997 441.044L381.195 318.048C404.15 295.066 428.977 271.772 450.971 247.996C447.484 247.789 443.993 247.664 440.5 247.62L368.816 247.664C353.942 247.659 323.788 246.663 310.503 249.92C297.766 253.041 286.109 259.545 276.764 268.744C252.665 292.751 255.461 318.784 255.449 349.31L255.421 399.066C253.509 402.045 247.66 407.218 244.934 409.911L230.662 424.189C217.824 436.717 205.11 449.369 192.52 462.146C179.825 474.825 169.779 484.217 158.662 498.332C159.105 483.143 158.578 466.003 158.56 450.631L158.681 351.843C158.786 329.892 157.381 302.801 161.844 281.988C167.73 253.293 181.137 226.678 200.693 204.869C231.243 170.883 271.597 152.632 317.064 150.23Z"/><path fill="#1E1C1D" d="M818.867 149.725C832.321 149.995 842.75 151.968 854.649 158.851C871.243 168.273 883.3 184.03 888.057 202.509C892.794 221.023 889.425 239.759 879.597 256.019C877.612 259.376 875.271 262.509 872.613 265.362C860.696 277.919 845.799 291.549 833.337 303.98L729.371 407.253L688.333 448.031C681.63 454.698 673.747 464.099 666.048 469.119C660.994 472.415 619.194 481.28 609.9 483.613C599.732 485.944 588.005 489.586 577.837 490.814C562.564 493.102 544.647 477.408 545.291 461.998C545.885 447.806 554.502 427.67 558.991 413.751L567.335 387.738C568.688 383.522 570.83 375.524 572.747 371.927C577.87 362.314 590.368 351.641 598.003 344.033L634.521 307.735L700.435 241.725L749.811 192.107C771.79 169.91 785.064 150.818 818.867 149.725ZM601.619 435.69L624.125 429.8C644.08 425.145 641.424 425.448 656.038 410.923L686.235 380.564L744.33 322.779C760.398 307.042 781.996 286.473 797.091 269.913C785.402 265.213 780.189 261.746 772.877 251.231C772.458 250.63 769.085 245.755 768.784 245.458L652.396 361.471L628.912 384.72C626.257 387.338 616.334 396.776 615.005 399.437C609.651 410.157 606.113 424.177 601.619 435.69Z"/></svg>